# xmcd
#
# Track frame offsets:
#	150
#	13847
#	26781
#	39202
#	51332
#	65341
#	79108
#	91537
#	104577
#	117202
#	133500
#	148016
#	160793
#	175446
#	186540
#	198741
#	215560
#	229187
#	242304
#	255131
#
# Disc length: 3590 seconds
#
# Revision: 6
# Processed by: cddbd v1.5.2PL0 Copyright (c) Steve Scherf et al.
# Submitted via: audiograbber 1.83.01
#
DISCID=130e0414
DTITLE=Various Artist - Blues From The Checker Vaults  [CD2)
DYEAR=2014
DGENRE=Oldies
TTITLE0=Elmore James - She Just Won't Do It Right
TTITLE1=Jimmy Witherspoon - When The Lights Go Out
TTITLE2=Bo Diddley - Pretty Thing
TTITLE3=Otis Spann - It Must Have Been The Devil
TTITLE4=Little Walter - Rocker
TTITLE5=Willie Dixon - Walkin' The Blues
TTITLE6=Percy Lee Crudup - Tears In My Eyes
TTITLE7=Lowell Fulson - Trouble, Trouble
TTITLE8=Memphis Minnie - Me And My Chauffeur
TTITLE9=Big Boy Spires - One Of These Days
TTITLE10=John Brim - Rattlesnake
TTITLE11=Lowell Fulson - Lonely Hours
TTITLE12=Rocky Fuller - Soon One Morning
TTITLE13=Morris Pejoe - Tired Of Crying Over You
TTITLE14=Percy Lee Crudup - Open Your Book
TTITLE15=Joe Hill Louis - When I'm Gone (She Treats Me Mean And Evil)
TTITLE16=Sonny Boy Williamson - Your Imagination
TTITLE17=Little Walter - Mean Old World
TTITLE18=Jimmy Witherspoon - Time Brings About A Change
TTITLE19=Lowell Fulson - Loving You (Is All I Crave)
EXTD=
EXTT0=
EXTT1=
EXTT2=
EXTT3=
EXTT4=
EXTT5=
EXTT6=
EXTT7=
EXTT8=
EXTT9=
EXTT10=
EXTT11=
EXTT12=
EXTT13=
EXTT14=
EXTT15=
EXTT16=
EXTT17=
EXTT18=
EXTT19=
PLAYORDER=
